{"glyphs":{":":{"x_min":0,"x_max":185,"ha":185,"o":"m 162 341 q 162 312 141 291 q 120 270 90 270 q 61 270 40 291 q 19 312 19 341 q 19 370 40 391 q 61 412 90 412 q 120 412 141 392 q 162 372 162 341 z m 162 70 q 162 40 141 19 q 120 -2 90 -2 q 61 -2 40 19 q 19 40 19 70 q 19 99 40 120 q 61 141 90 141 q 120 141 141 120 q 162 99 162 70 z"},"$":{"x_min":0,"x_max":556,"ha":556,"o":"m 321 103 q 423 103 478 173 q 523 230 523 306 q 523 323 520 337 q 504 421 396 479 q 325 513 254 547 q 244 556 244 571 q 244 591 258 608 q 273 626 292 626 q 317 626 330 612 q 344 599 344 580 q 344 562 331 549 q 338 544 345 539 q 363 536 406 536 q 438 536 459 558 q 480 580 480 612 q 480 637 465 662 q 450 686 419 703 q 381 725 348 732 q 337 734 323 735 l 323 818 l 238 818 l 237 735 q 206 734 182 726 q 158 719 125 694 q 84 664 64 627 q 44 590 44 550 q 44 462 132 393 q 138 388 174 371 q 200 358 200 349 q 200 327 174 327 l 42 327 q 20 327 20 307 l 20 123 q 20 104 41 104 l 237 104 l 237 -13 l 321 -13 z"},"?":{"x_min":0,"x_max":609,"ha":609,"o":"m 512 738 q 591 675 591 596 q 591 482 440 374 q 374 327 360 286 q 350 258 350 155 q 301 215 234 215 q 204 215 178 202 q 152 190 128 163 q 128 281 154 344 q 174 392 226 441 q 318 527 333 544 q 352 566 352 594 q 352 626 329 650 q 306 674 277 670 q 233 664 216 646 q 198 627 198 600 q 198 580 205 564 q 212 547 222 537 q 231 529 215 518 q 181 495 116 495 q 66 495 39 526 q 12 557 12 602 q 12 646 34 684 q 56 723 100 748 q 145 773 200 789 q 255 805 312 805 q 366 805 416 790 q 467 774 512 738 z m 339 81 q 339 38 309 8 q 279 -22 235 -22 q 193 -22 162 8 q 132 39 132 81 q 132 123 162 153 q 192 183 235 183 q 277 183 308 153 q 339 123 339 81 z"},"<":{"x_min":0,"x_max":382,"ha":382,"o":"m 335 291 q 343 283 343 273 q 343 265 338 258 q 332 250 324 242 l 287 204 q 277 195 269 191 q 261 187 252 187 q 243 187 237 193 l 51 381 q 42 390 40 393 q 35 401 35 410 q 35 418 40 425 q 44 432 51 439 l 237 625 q 243 631 252 631 q 260 631 270 626 q 279 621 287 614 l 324 576 q 335 565 337 562 q 343 554 343 545 q 343 535 335 527 l 219 410 z"},"'":{"x_min":0,"x_max":209,"ha":209,"o":"m 179 730 q 179 691 157 638 q 132 577 104 577 q 76 577 52 634 q 29 691 29 730 q 29 761 51 783 q 73 805 104 805 q 135 805 157 783 q 179 761 179 730 z"},"=":{"x_min":0,"x_max":500,"ha":500,"o":"m 454 353 q 454 333 451 325 q 445 310 427 310 l 70 310 q 51 310 46 321 q 41 332 41 353 l 41 406 q 41 421 48 435 q 56 449 70 449 l 427 449 q 441 449 448 436 q 454 423 454 406 z m 454 145 q 454 125 451 117 q 445 102 427 102 l 70 102 q 51 102 46 113 q 41 124 41 145 l 41 198 q 41 213 48 227 q 56 241 70 241 l 427 241 q 441 241 448 228 q 454 215 454 198 z"},"a":{"x_min":0,"x_max":593,"ha":593,"o":"m 556 26 q 556 11 552 6 q 547 0 530 0 l 370 0 q 353 0 348 5 q 343 10 343 27 l 343 227 q 343 244 330 254 q 317 264 299 264 q 282 264 271 254 q 260 245 260 225 q 260 193 289 184 q 318 175 318 121 q 318 51 273 11 q 233 -25 173 -25 q 111 -25 67 13 q 18 55 18 126 q 18 186 34 222 q 50 259 97 294 q 103 299 248 350 q 302 369 327 400 q 335 409 339 420 q 343 430 343 438 q 343 455 330 464 q 317 474 298 474 q 260 474 260 439 q 241 405 219 390 q 197 375 172 375 q 135 375 104 404 q 72 433 72 457 q 72 513 142 551 q 211 589 302 589 q 407 589 476 539 q 556 481 556 370 z"},"L":{"x_min":0,"x_max":658,"ha":658,"o":"m 634 31 q 634 17 619 8 q 604 0 590 0 l 93 0 q 57 0 48 5 q 40 10 40 27 q 40 37 40 43 l 40 502 q 40 661 149 743 q 233 806 342 806 q 450 806 514 769 q 604 717 604 596 q 604 544 554 500 q 505 455 442 455 q 420 455 402 460 q 383 466 363 479 q 391 479 411 491 q 437 507 437 539 q 437 562 420 576 q 404 591 386 591 q 366 591 352 576 q 337 560 337 538 l 337 325 q 337 299 344 294 q 352 289 391 289 l 585 289 q 620 289 627 282 q 634 276 634 239 z"},"3":{"x_min":0,"x_max":701,"ha":701,"o":"m 644 352 q 667 294 667 243 q 667 138 576 67 q 496 4 373 -13 q 353 -16 333 -16 q 243 -16 160 28 q 70 76 36 153 q 21 186 21 221 q 21 286 74 341 q 105 370 160 370 q 187 370 206 360 q 226 350 233 330 q 244 295 266 278 q 287 261 313 261 q 345 261 370 284 q 394 306 394 336 q 394 378 369 399 q 348 416 313 416 l 257 416 q 242 416 238 419 q 233 423 233 436 l 233 500 q 233 514 236 517 q 240 521 257 521 q 265 521 269 521 q 296 521 309 525 q 330 532 340 552 q 347 566 347 582 q 347 608 326 626 q 304 643 279 643 q 260 643 250 632 q 239 620 236 596 q 233 573 220 563 q 206 553 192 546 q 177 540 160 540 q 133 540 114 562 q 96 583 96 613 q 96 650 122 691 q 149 732 195 758 q 227 776 264 786 q 301 795 337 795 q 435 795 509 741 q 583 687 583 612 q 583 578 566 544 q 549 511 512 479 q 569 445 588 429 q 626 397 644 352 z"},";":{"x_min":0,"x_max":190,"ha":190,"o":"m 164 341 q 164 312 143 291 q 122 270 92 270 q 63 270 42 291 q 21 312 21 341 q 21 370 42 391 q 63 412 92 412 q 122 412 143 392 q 164 372 164 341 z m 164 69 q 164 11 134 -24 q 105 -58 58 -58 q 43 -58 32 -54 q 21 -50 21 -45 q 21 -42 32 -40 q 44 -39 51 -31 q 58 -23 62 -13 q 66 -3 62 5 q 43 12 32 30 q 21 49 21 69 q 21 98 42 119 q 63 140 92 140 q 122 140 143 119 q 164 98 164 69 z"},"J":{"x_min":0,"x_max":619,"ha":619,"o":"m 584 354 q 584 203 514 103 q 434 -11 288 -11 q 178 -11 92 59 q 0 134 0 242 q 0 331 54 384 q 109 438 196 438 q 203 438 211 438 q 222 436 227 436 q 227 403 207 377 q 187 351 187 337 q 187 316 202 302 q 217 288 235 288 q 255 288 268 305 q 281 322 281 358 l 281 761 q 281 784 296 795 q 311 806 334 806 l 537 806 q 558 806 571 797 q 584 788 584 766 z"},"V":{"x_min":0,"x_max":798,"ha":798,"o":"m 780 777 l 739 266 q 739 137 636 62 q 544 -5 408 -5 q 277 -5 181 58 q 76 127 65 244 l 17 766 q 15 788 28 797 q 41 806 65 806 l 318 806 q 353 806 362 798 q 372 790 372 761 l 372 378 q 372 343 393 324 q 414 305 444 305 q 472 305 492 323 q 512 341 512 373 q 512 411 471 442 q 430 473 430 509 l 430 769 q 430 789 438 798 q 445 806 460 806 l 753 806 q 764 806 772 797 q 780 788 780 777 z"},"\"":{"x_min":0,"x_max":396,"ha":396,"o":"m 371 732 q 371 693 349 640 q 324 579 296 579 q 268 579 244 636 q 221 693 221 732 q 221 763 243 785 q 265 807 296 807 q 327 807 349 785 q 371 763 371 732 z m 179 730 q 179 691 157 638 q 132 577 104 577 q 76 577 52 634 q 29 691 29 730 q 29 761 51 783 q 73 805 104 805 q 135 805 157 783 q 179 761 179 730 z"},"7":{"x_min":0,"x_max":735,"ha":735,"o":"m 690 705 q 706 686 706 671 q 706 655 620 563 q 562 501 515 426 l 635 426 l 635 340 l 465 340 q 438 305 409 202 q 380 98 380 53 q 380 16 369 6 q 362 0 337 0 l 117 0 q 109 0 106 0 q 89 0 83 5 q 74 13 74 39 q 74 103 113 199 q 148 284 190 340 l 63 340 l 63 426 l 247 426 q 274 460 284 473 q 301 495 308 506 q 323 530 323 551 q 323 580 300 600 q 276 619 245 619 q 204 619 180 585 q 166 564 166 546 q 166 536 168 529 q 170 522 176 508 q 162 483 122 483 q 98 483 78 492 q 59 502 45 526 q 23 561 23 604 q 23 644 43 680 q 63 716 104 739 q 160 770 228 770 q 322 770 394 712 q 411 735 452 752 q 493 769 542 769 q 583 769 622 754 q 660 739 690 705 z"},"S":{"x_min":0,"x_max":684,"ha":684,"o":"m 666 311 q 671 284 671 264 q 671 155 574 78 q 477 0 334 0 l 53 0 q 42 0 33 7 q 24 14 24 25 l 24 271 q 24 282 33 290 q 42 298 54 298 l 223 298 q 237 298 247 306 q 257 313 257 327 q 257 338 224 354 q 179 376 170 383 q 57 473 57 589 q 57 642 82 690 q 108 737 160 777 q 205 812 252 828 q 299 843 344 843 q 382 843 426 832 q 469 820 531 788 q 576 764 597 734 q 618 703 618 669 q 618 629 590 600 q 562 571 520 571 q 473 571 444 584 q 416 597 424 609 q 427 612 430 618 q 439 632 440 646 q 440 671 424 689 q 405 710 375 710 q 349 710 330 691 q 311 672 311 647 q 311 626 327 607 q 347 583 434 538 q 531 487 575 451 q 650 389 666 311 z"},"}":{"x_min":0,"x_max":405,"ha":405,"o":"m 373 390 q 365 377 360 370 q 344 344 338 330 q 332 315 329 294 q 326 272 326 252 q 326 207 334 164 q 335 156 339 145 q 339 80 296 23 q 247 -42 175 -42 q 161 -42 152 -42 q 142 -42 137 -42 q 83 -42 71 -38 q 52 -26 31 -13 q 34 -8 72 31 q 95 54 95 107 q 90 132 88 148 q 80 202 80 239 q 80 263 82 284 q 84 305 93 330 q 99 347 114 372 q 119 380 128 395 q 120 410 115 419 q 98 450 92 466 q 86 483 83 508 q 80 533 80 559 q 80 603 87 651 q 89 667 95 693 q 95 748 74 770 q 52 790 31 811 q 70 835 80 838 q 90 840 175 840 q 256 840 303 766 q 339 710 339 653 q 335 633 334 619 q 328 572 328 540 q 328 516 330 496 q 332 476 338 460 q 344 443 359 415 q 364 406 373 390 z"},"Z":{"x_min":0,"x_max":738,"ha":738,"o":"m 708 761 q 733 740 733 713 q 733 691 717 662 q 713 656 698 631 l 514 338 q 508 329 508 321 q 508 297 536 297 l 673 297 q 693 297 698 290 q 703 283 703 259 l 703 51 q 703 39 703 34 q 703 13 696 6 q 690 0 660 0 l 57 0 q 31 0 18 18 q 4 37 4 64 q 4 93 18 116 l 298 563 q 309 581 309 599 q 309 624 289 640 q 269 656 243 656 q 209 656 190 627 q 179 608 179 593 q 179 586 181 578 q 183 569 185 564 q 178 552 158 542 q 137 531 117 531 q 100 531 85 538 q 70 546 59 564 q 36 599 36 643 q 36 683 57 720 q 78 756 121 778 q 180 809 250 809 q 300 809 344 795 q 388 781 425 751 q 445 776 484 793 q 524 810 572 810 q 607 810 642 798 q 676 787 708 761 z"},"x":{"x_min":0,"x_max":628,"ha":628,"o":"m 619 22 q 617 11 610 6 q 604 0 587 0 l 546 0 q 446 0 376 61 q 317 112 317 159 q 317 112 258 61 q 187 0 87 0 l 46 0 q 22 0 15 15 q 14 17 13 22 l 13 180 q 13 207 17 211 q 22 216 48 216 l 121 216 q 199 216 229 266 q 248 298 248 353 q 248 370 248 375 q 248 400 230 417 q 212 434 193 434 q 177 434 164 420 q 152 407 152 392 q 152 368 167 353 q 172 348 183 342 q 146 317 111 317 q 70 317 43 347 q 16 377 16 424 q 16 512 72 555 q 116 589 179 589 q 237 589 267 569 q 291 553 316 507 q 341 552 365 568 q 396 589 453 589 q 516 589 559 556 q 616 512 616 424 q 616 377 589 347 q 562 317 521 317 q 486 317 449 342 q 455 345 458 347 q 480 363 480 392 q 480 405 468 420 q 455 434 440 434 q 419 434 402 418 q 384 401 384 375 q 384 362 384 353 q 384 296 402 266 q 432 216 512 216 l 585 216 q 611 216 615 212 q 619 208 619 180 z"},")":{"x_min":0,"x_max":352,"ha":352,"o":"m 310 145 q 310 72 259 15 q 208 -42 140 -42 q 126 -42 116 -42 q 107 -42 102 -42 q 51 -42 40 -38 q 23 -26 2 -13 q 5 -8 43 30 q 66 53 66 107 l 66 693 q 66 748 45 770 q 23 790 2 811 q 41 835 51 838 q 61 840 146 840 q 231 840 276 771 q 310 718 310 653 z"},"&":{"x_min":0,"x_max":692,"ha":692,"o":"m 646 79 q 646 35 630 18 q 615 0 567 0 l 277 0 q 263 0 254 0 q 244 0 239 0 q 194 0 171 9 q 139 22 94 66 q 60 100 40 146 q 21 193 21 240 q 21 340 94 412 q 105 423 115 431 q 136 448 164 459 q 127 505 127 574 q 127 613 142 654 q 158 694 190 727 q 229 767 276 786 q 323 806 377 806 q 429 806 480 786 q 530 766 569 727 q 594 702 606 675 q 619 648 619 621 q 619 575 588 544 q 556 512 509 512 q 467 512 433 543 q 454 558 454 588 q 454 611 438 630 q 423 648 395 648 q 369 648 353 631 q 337 614 337 591 q 337 577 342 564 q 348 552 362 541 l 558 377 q 570 366 570 359 q 570 353 564 350 q 557 346 550 346 l 382 346 q 365 346 346 348 q 327 350 318 358 q 309 366 295 366 q 277 366 264 356 q 250 345 250 329 q 250 313 265 299 q 269 295 276 292 q 283 289 294 289 l 604 289 q 620 289 633 279 q 646 269 646 253 z"},"_":{"x_min":0,"x_max":821,"ha":821,"o":"m 858 -325 q 858 -365 852 -374 q 846 -382 820 -382 l 5 -382 q -19 -382 -25 -375 q -34 -364 -34 -324 l -34 -221 q -34 -182 -26 -172 q -18 -163 5 -163 l 823 -163 q 849 -163 854 -170 q 858 -177 858 -221 z"},"v":{"x_min":0,"x_max":592,"ha":592,"o":"m 589 560 l 559 180 q 559 88 476 39 q 404 -3 290 -3 q 162 -3 100 40 q 39 83 39 180 l 7 560 q 4 590 33 590 l 217 590 q 238 590 242 586 q 246 582 246 560 l 246 281 q 246 251 268 234 q 290 216 320 216 q 348 216 368 232 q 389 249 389 281 q 389 332 351 351 q 339 357 312 359 l 312 560 q 312 580 315 585 q 318 590 333 590 l 567 590 q 589 590 589 560 z"},"O":{"x_min":0,"x_max":897,"ha":897,"o":"m 870 397 q 870 209 766 100 q 655 -16 448 -16 q 239 -16 130 100 q 28 208 28 397 q 28 476 77 570 q 132 676 220 741 q 323 818 448 818 q 572 818 676 741 q 765 675 820 571 q 870 476 870 397 z m 589 450 q 589 512 555 562 q 515 621 448 621 q 384 621 343 562 q 307 511 307 450 q 307 378 346 329 q 385 280 448 280 q 515 280 552 328 q 589 375 589 450 z"},"(":{"x_min":0,"x_max":372,"ha":372,"o":"m 347 -13 q 308 -37 298 -40 q 288 -42 203 -42 q 131 -42 82 23 q 39 80 39 145 l 39 653 q 39 708 75 765 q 123 840 203 840 q 288 840 298 838 q 308 835 347 811 q 316 783 304 771 q 283 749 283 693 l 283 107 q 283 50 316 22 q 339 3 347 -13 z"},"C":{"x_min":0,"x_max":780,"ha":780,"o":"m 745 0 q 685 0 630 0 q 576 0 527 -1 q 353 -1 290 16 q 228 33 151 106 q 106 148 73 232 q 37 324 37 415 q 37 576 155 692 q 273 808 437 808 q 558 808 645 737 q 736 662 736 552 q 736 464 665 415 q 605 373 521 373 q 476 373 442 387 q 442 405 480 430 q 519 456 519 505 q 519 517 518 523 q 514 560 490 580 q 465 599 429 599 q 374 599 330 560 q 282 517 282 449 q 282 389 330 340 q 378 291 442 291 l 698 291 q 719 291 732 275 q 745 259 745 237 z"},"W":{"x_min":0,"x_max":1114,"ha":1114,"o":"m 556 240 q 556 148 619 76 q 690 -5 804 -5 q 912 -5 983 68 q 1054 141 1054 243 q 1054 250 1050 269 q 1047 288 1048 297 l 1095 771 q 1094 781 1092 785 q 1086 799 1071 799 l 766 799 q 752 799 742 792 q 732 786 732 767 l 732 408 q 732 395 751 377 q 770 359 770 341 q 770 318 756 306 q 742 293 721 293 q 703 293 690 306 q 676 318 676 341 l 676 774 q 676 789 671 794 q 666 799 646 799 l 465 799 q 446 799 441 793 q 436 787 436 774 l 436 341 q 436 320 422 307 q 408 294 389 294 q 370 294 356 306 q 341 319 341 341 q 341 357 353 370 q 379 399 379 410 l 379 767 q 379 786 368 792 q 358 799 345 799 l 41 799 q 30 799 23 791 q 16 783 16 771 l 63 297 q 64 294 61 271 q 58 248 58 243 q 58 142 128 68 q 199 -5 307 -5 q 420 -5 492 76 q 556 148 556 240 z"},"A":{"x_min":0,"x_max":774,"ha":774,"o":"m 733 32 q 733 19 726 10 q 718 0 707 0 l 457 0 q 438 0 432 13 q 431 17 430 26 l 430 313 q 430 344 412 360 q 395 377 371 377 q 349 377 332 361 q 315 345 315 318 q 315 288 344 274 q 373 260 373 251 l 373 144 q 373 76 310 23 q 252 -26 188 -26 q 94 -26 45 30 q 2 79 2 157 q 2 223 34 284 q 51 343 103 440 q 183 590 281 684 q 415 812 562 812 q 602 812 649 802 q 696 793 704 789 q 733 776 733 743 z m 413 471 q 430 487 430 513 q 430 539 412 556 q 395 574 369 574 q 344 574 328 557 q 311 540 311 511 q 311 488 326 472 q 341 455 369 455 q 386 455 394 458 q 401 460 413 471 z"},"f":{"x_min":0,"x_max":504,"ha":504,"o":"m 553 654 q 554 649 554 638 q 554 583 514 552 q 478 524 428 524 q 396 524 372 536 q 347 547 338 570 q 354 576 367 584 q 393 600 393 630 q 393 657 378 672 q 363 687 342 687 q 322 687 305 672 q 288 657 284 634 q 281 612 281 604 q 281 554 307 510 q 337 459 387 451 q 400 449 404 442 q 409 436 409 424 l 408 347 q 408 320 380 320 l 307 320 q 271 320 271 287 l 271 21 q 271 11 260 6 q 250 0 236 0 l 75 0 q 60 0 50 4 q 39 9 39 21 l 39 557 q 39 675 132 744 q 215 806 330 806 q 418 806 479 768 q 546 726 553 654 z"},"Q":{"x_min":0,"x_max":735,"ha":735,"o":"m 775 -68 q 769 -130 724 -164 q 683 -195 619 -195 q 557 -195 495 -164 q 433 -133 392 -78 q 352 -23 318 -12 q 284 0 166 0 l 77 0 q 38 0 30 8 q 23 17 23 52 l 23 242 q 23 275 31 282 q 39 289 71 289 l 171 289 q 300 289 362 404 q 405 483 405 579 q 405 615 385 634 q 365 653 337 653 q 311 653 294 638 q 277 623 277 595 q 277 578 286 557 q 290 547 300 540 q 311 532 321 526 q 324 512 324 500 q 324 445 272 403 q 220 361 159 361 q 100 361 65 399 q 23 444 23 534 q 23 569 50 625 q 87 703 153 751 q 241 815 366 815 q 526 815 625 694 q 707 594 707 487 q 707 409 662 332 q 629 275 579 227 q 539 188 533 188 q 569 164 586 143 q 608 111 631 79 q 665 33 716 -18 q 767 -68 775 -68 z"},"w":{"x_min":0,"x_max":783,"ha":783,"o":"m 782 575 l 743 259 q 747 251 750 229 q 753 207 753 188 q 753 125 708 66 q 655 -3 577 -3 q 488 -3 432 41 q 414 55 394 85 q 375 55 357 41 q 302 -3 212 -3 q 133 -3 81 65 q 36 124 36 188 q 35 195 35 201 q 35 209 37 223 q 39 237 46 259 l 7 575 q 4 590 24 590 l 233 590 q 247 590 253 585 q 259 580 259 571 l 259 332 q 241 327 233 322 q 207 305 207 272 q 207 249 222 236 q 238 224 258 224 q 278 224 293 236 q 308 249 308 272 l 308 573 q 308 590 327 590 l 462 590 q 474 590 478 587 q 482 584 482 573 l 482 272 q 482 250 498 238 q 514 225 536 225 q 555 225 569 237 q 583 249 583 272 q 583 304 556 321 q 547 326 529 332 l 529 572 q 529 591 556 591 l 765 591 q 784 591 782 575 z"},"-":{"x_min":0,"x_max":632,"ha":632,"o":"m 590 396 q 590 367 586 357 q 579 338 555 338 l 79 338 q 54 338 45 357 q 40 368 40 396 l 40 466 q 40 489 50 506 q 60 524 79 524 l 555 524 q 573 524 582 506 q 590 489 590 466 z"},"E":{"x_min":0,"x_max":708,"ha":708,"o":"m 685 654 q 685 568 641 532 q 607 504 547 504 l 486 504 q 450 504 440 508 q 429 513 429 531 q 429 552 439 556 q 462 566 462 611 q 462 639 444 656 q 426 673 403 673 q 380 673 364 654 q 348 636 348 599 l 348 498 q 348 464 366 456 q 384 448 440 448 l 629 448 l 629 380 q 629 357 618 346 q 608 336 582 336 l 344 336 q 344 304 364 292 q 385 279 432 279 l 683 279 l 683 0 l 40 0 l 40 755 q 40 783 83 798 q 126 814 185 814 q 246 814 291 799 q 336 784 339 757 q 362 786 402 801 q 443 816 491 816 q 570 816 624 777 q 685 733 685 654 z"},"s":{"x_min":0,"x_max":487,"ha":487,"o":"m 472 225 q 473 216 474 208 q 476 201 476 191 q 476 112 406 56 q 336 0 233 0 l 31 0 q 10 0 10 18 l 10 196 q 10 215 32 215 l 153 215 q 177 215 177 236 q 177 245 151 260 q 134 270 126 277 q 52 340 52 425 q 52 505 119 560 q 146 582 178 592 q 211 602 247 602 q 287 602 324 591 q 361 580 378 567 q 401 549 412 528 q 424 506 424 485 q 424 453 404 430 q 384 406 357 406 q 332 406 312 418 q 293 429 301 443 q 302 446 305 454 q 308 461 308 466 q 308 489 297 500 q 286 511 269 511 q 249 511 233 498 q 217 485 217 466 q 217 452 227 438 q 331 378 395 332 q 459 287 472 225 z"},">":{"x_min":0,"x_max":382,"ha":382,"o":"m 347 414 q 347 406 342 399 q 338 392 331 385 l 145 197 q 139 191 130 191 q 122 191 112 196 q 103 201 95 208 l 58 246 q 47 257 45 260 q 39 268 39 277 q 39 287 47 295 l 163 414 l 47 531 q 39 539 39 549 q 39 557 44 564 q 50 572 58 580 l 95 618 q 105 627 113 631 q 121 635 130 635 q 139 635 145 629 l 331 443 q 340 434 342 431 q 347 423 347 414 z"},"l":{"x_min":0,"x_max":290,"ha":290,"o":"m 248 24 q 248 0 231 0 l 80 0 q 61 0 50 4 q 39 8 39 24 l 39 769 q 39 799 47 804 q 55 810 88 810 l 199 810 q 234 810 241 804 q 248 798 248 769 z"},"8":{"x_min":0,"x_max":684,"ha":684,"o":"m 537 478 q 507 504 460 524 q 408 547 356 547 q 376 560 386 576 q 395 592 395 608 q 395 629 378 645 q 361 661 337 661 q 318 661 297 649 q 281 640 281 599 q 281 564 300 552 q 363 540 422 520 q 482 500 529 461 q 583 418 610 364 q 638 310 638 253 q 638 195 611 142 q 584 89 531 49 q 492 19 442 4 q 393 -12 339 -12 q 228 -12 149 50 q 94 94 66 149 q 38 204 38 260 q 38 318 66 371 q 94 424 143 460 q 197 445 254 421 q 310 397 356 359 q 339 372 325 372 q 314 372 302 362 q 291 351 286 342 q 282 332 282 320 q 282 296 300 279 q 318 262 342 262 q 354 262 363 266 q 372 269 380 278 q 389 286 394 298 q 398 311 398 322 q 398 333 393 344 q 388 356 375 366 q 324 406 264 434 q 214 457 158 471 q 127 499 112 532 q 96 565 96 599 q 96 666 149 713 q 185 744 236 760 q 288 776 342 776 q 400 776 448 760 q 497 745 532 713 q 555 692 571 660 q 587 627 587 590 q 587 560 576 532 q 564 505 537 478 z"},"\\":{"x_min":0,"x_max":622,"ha":622,"o":"m 614 -5 l 511 -5 l -1 801 l 102 801 z"},"e":{"x_min":0,"x_max":528,"ha":528,"o":"m 511 38 q 511 14 506 7 q 501 0 476 0 l 282 0 q 162 0 88 97 q 21 185 21 307 q 21 425 84 503 q 156 592 282 592 q 328 592 363 582 q 373 579 422 559 q 455 545 478 512 q 501 479 501 448 q 501 418 478 398 q 456 379 408 379 q 395 379 383 382 q 371 384 352 393 q 352 405 349 418 q 346 430 338 438 q 319 456 296 456 q 274 456 256 436 q 239 415 239 391 q 239 369 254 355 q 269 341 303 341 l 448 341 q 465 341 470 336 q 474 330 474 314 q 474 305 474 300 q 474 272 472 268 q 467 258 448 258 l 275 258 q 265 258 258 252 q 252 245 252 236 q 252 227 258 220 q 265 212 275 212 l 471 212 q 485 212 490 212 q 502 212 506 206 q 511 200 511 180 z"},"b":{"x_min":0,"x_max":629,"ha":629,"o":"m 605 285 q 605 130 533 56 q 475 -4 383 -4 q 345 -4 314 6 q 283 15 262 32 q 246 17 208 6 q 171 -6 135 -6 q 93 -6 69 10 q 40 29 40 69 l 40 757 q 40 775 50 788 q 59 802 75 802 l 227 802 q 242 802 252 790 q 263 777 263 760 l 263 331 q 263 284 288 255 q 313 226 346 226 q 379 226 402 256 q 424 287 424 348 q 424 394 396 428 q 367 463 329 463 q 308 463 300 465 q 293 467 293 485 l 293 558 q 293 580 300 583 q 308 586 359 586 q 456 586 530 494 q 605 401 605 285 z"},"%":{"x_min":0,"x_max":723,"ha":723,"o":"m 663 758 l 355 287 q 383 316 411 332 q 448 353 487 353 q 521 353 554 338 q 587 323 623 287 q 643 267 654 236 q 664 205 664 173 q 664 99 626 56 q 596 21 561 4 q 526 -12 491 -12 q 452 -12 418 6 q 383 23 357 55 q 335 82 326 109 q 316 136 316 164 q 316 201 332 238 q 337 250 348 268 l 170 0 l 16 0 l 497 737 l 236 737 q 198 737 177 714 q 160 695 160 671 q 160 648 173 632 q 190 611 222 611 q 248 611 264 630 q 281 648 281 673 q 281 689 272 701 l 378 702 q 387 681 392 665 q 396 649 396 629 q 396 597 383 568 q 367 532 330 493 q 310 472 283 462 q 256 451 226 451 q 158 451 113 491 q 83 517 63 555 q 43 593 43 636 q 43 661 50 686 q 58 712 75 737 q 107 786 142 800 q 177 815 236 815 l 637 815 q 663 815 674 810 q 684 805 684 796 q 684 789 676 778 q 669 767 663 758 z m 551 209 q 551 234 533 252 q 515 270 490 270 q 465 270 447 252 q 429 234 429 209 q 429 185 447 167 q 465 149 490 149 q 515 149 533 166 q 551 183 551 209 z"},"m":{"x_min":0,"x_max":823,"ha":823,"o":"m 807 20 q 807 13 806 10 q 802 0 789 0 l 565 0 q 557 0 548 7 q 539 14 539 24 l 539 329 q 539 341 566 349 q 594 357 594 385 q 594 405 582 418 q 569 432 550 432 q 525 432 512 420 q 500 407 500 386 l 500 17 q 500 0 481 0 l 337 0 q 317 0 317 17 l 317 386 q 317 408 306 420 q 294 432 267 432 q 249 432 236 419 q 223 406 223 385 q 223 357 250 349 q 278 341 278 329 l 278 24 q 278 14 269 7 q 260 0 252 0 l 28 0 q 9 0 11 20 l 60 425 q 60 496 109 546 q 158 596 233 596 q 313 596 364 540 q 409 490 409 426 q 409 491 453 540 q 503 596 584 596 q 657 596 705 546 q 749 499 758 425 z"},"#":{"x_min":0,"x_max":790,"ha":790,"o":"m 779 807 l 666 583 l 749 583 q 763 583 770 570 q 776 557 776 540 l 776 487 q 776 467 773 459 q 767 444 749 444 l 595 444 l 540 335 l 615 335 q 629 335 636 322 q 642 309 642 292 l 642 239 q 642 219 639 211 q 633 196 615 196 l 469 196 l 369 -2 l 266 -2 l 366 196 l 203 196 l 103 -2 l 0 -2 l 100 196 l 28 196 q 9 196 4 207 q -1 218 -1 239 l -1 292 q -1 307 6 321 q 14 335 28 335 l 171 335 l 226 444 l 148 444 q 129 444 124 455 q 119 466 119 487 l 119 540 q 119 555 126 569 q 134 583 148 583 l 296 583 l 410 807 l 513 807 l 399 583 l 563 583 l 676 807 z m 492 444 l 329 444 l 274 335 l 437 335 z"},",":{"x_min":0,"x_max":190,"ha":190,"o":"m 162 69 q 162 11 132 -24 q 103 -58 56 -58 q 41 -58 30 -54 q 19 -50 19 -45 q 39 -37 41 -36 q 63 -25 63 -8 q 63 -3 60 5 q 41 12 30 30 q 19 49 19 69 q 19 98 40 119 q 61 140 90 140 q 120 140 141 119 q 162 98 162 69 z"},"n":{"x_min":0,"x_max":598,"ha":598,"o":"m 558 31 q 558 22 558 18 q 558 0 535 0 l 332 0 q 318 0 314 7 q 311 14 311 30 l 311 285 q 340 294 354 302 q 398 328 398 372 q 398 409 373 430 q 348 451 314 451 q 283 451 260 432 q 238 412 238 376 l 238 31 q 238 10 235 6 q 230 0 209 0 l 65 0 q 47 0 43 5 q 39 10 39 31 l 39 551 q 39 572 60 582 q 81 591 116 591 q 154 591 190 580 q 225 568 238 550 q 271 571 308 582 q 344 593 379 593 q 457 593 505 544 q 558 490 558 395 z"},"h":{"x_min":0,"x_max":603,"ha":603,"o":"m 559 28 q 559 19 559 15 q 559 0 536 0 l 333 0 q 318 0 315 5 q 312 10 312 27 l 312 269 q 340 280 354 290 q 397 320 397 364 q 397 400 372 422 q 347 444 318 444 q 290 444 264 422 q 239 401 239 366 l 239 31 q 239 8 237 5 q 233 0 210 0 l 66 0 q 49 0 44 4 q 40 7 40 19 q 40 26 40 31 l 40 766 q 40 795 44 800 q 49 806 71 806 q 80 806 85 806 l 205 806 q 235 806 237 798 q 239 790 239 767 l 239 592 l 311 592 q 452 592 510 529 q 559 476 559 367 z"},"z":{"x_min":0,"x_max":547,"ha":547,"o":"m 526 561 q 544 546 544 526 q 544 512 538 498 q 531 484 518 464 l 383 249 q 378 242 378 233 q 378 218 398 218 l 492 218 q 510 218 512 217 q 522 212 522 190 l 522 36 q 522 13 518 6 q 514 0 492 0 l 46 0 q 27 0 17 14 q 7 28 7 47 q 7 69 18 86 l 224 415 q 230 426 230 436 q 230 454 216 468 q 201 483 183 483 q 175 483 166 480 q 157 477 146 464 q 136 450 136 438 q 136 429 141 416 q 136 406 122 398 q 107 391 92 391 q 65 391 48 416 q 31 442 31 475 q 31 504 46 530 q 62 557 94 574 q 113 584 140 590 q 166 596 189 596 q 265 596 318 552 q 331 570 361 584 q 391 597 427 597 q 453 597 478 588 q 503 580 526 561 z"},"B":{"x_min":0,"x_max":807,"ha":807,"o":"m 723 79 q 648 19 614 10 q 580 0 434 0 q 412 0 405 4 q 398 7 398 24 l 398 284 q 398 294 427 309 q 456 324 456 358 q 456 387 440 404 q 425 420 401 420 q 374 420 358 404 q 341 388 341 354 l 341 29 q 341 18 333 9 q 325 0 314 0 l 65 0 q 51 0 42 24 q 41 28 38 36 l 38 741 q 38 776 74 792 q 90 799 140 808 q 157 812 181 812 q 230 812 274 793 q 317 774 332 744 q 353 766 369 776 q 418 808 479 808 q 565 808 629 757 q 698 702 698 621 q 698 572 682 537 q 667 502 638 475 q 718 436 756 372 q 788 319 788 251 q 788 195 768 146 q 748 98 723 79 z m 464 575 q 464 602 446 621 q 428 640 401 640 q 374 640 355 622 q 336 604 336 577 q 336 550 354 531 q 372 512 399 512 q 426 512 445 530 q 464 548 464 575 z"},"K":{"x_min":0,"x_max":831,"ha":831,"o":"m 819 92 q 829 69 829 47 q 829 25 816 12 q 802 0 768 0 l 450 0 q 433 0 422 12 q 410 25 410 52 l 410 405 q 405 411 402 414 q 393 423 388 423 q 382 423 382 410 l 382 53 q 382 32 369 16 q 356 0 335 0 l 75 0 q 40 0 40 54 l 40 748 q 40 789 50 798 q 60 807 94 807 l 326 807 q 382 807 382 756 l 382 596 q 382 572 390 558 q 399 545 424 545 q 444 545 456 564 q 469 582 469 613 q 469 638 460 650 q 451 663 428 674 q 416 680 416 695 q 416 731 466 775 q 522 824 584 824 q 653 824 713 761 q 777 694 777 611 q 777 525 739 468 q 737 465 689 414 z"},"R":{"x_min":0,"x_max":795,"ha":795,"o":"m 670 383 l 796 29 q 795 19 793 15 q 785 0 762 0 l 428 0 q 413 0 406 10 q 398 21 398 37 l 398 490 q 398 508 439 532 q 480 556 480 599 q 480 630 464 646 q 447 663 424 663 q 401 663 384 646 q 367 629 367 599 l 367 37 q 367 19 360 10 q 352 0 327 0 l 82 0 q 57 0 48 8 q 40 15 40 32 l 40 769 q 40 793 82 809 q 123 825 180 825 q 233 825 280 810 q 327 796 355 765 q 387 787 415 801 q 463 824 499 824 q 596 824 663 768 q 743 701 743 579 q 743 515 728 467 q 709 407 670 383 z"},"T":{"x_min":0,"x_max":681,"ha":681,"o":"m 664 268 q 664 154 560 73 q 463 -2 348 -2 q 204 -2 122 96 q 40 193 40 353 l 40 766 q 40 786 50 796 q 60 806 86 806 l 596 806 q 619 806 624 795 q 630 784 630 756 l 630 657 q 630 634 629 631 q 624 618 603 618 l 388 618 q 339 618 339 577 l 339 367 q 339 331 356 312 q 373 293 397 293 q 418 293 434 308 q 449 322 449 346 q 449 378 411 393 q 373 408 373 438 q 373 455 411 473 q 449 491 492 491 q 564 491 608 446 q 664 389 664 268 z"},"P":{"x_min":0,"x_max":801,"ha":801,"o":"m 793 538 q 793 411 690 322 q 607 250 537 250 q 523 250 514 250 q 504 250 499 250 q 438 250 422 256 q 405 261 405 287 l 405 446 q 405 495 448 514 q 492 533 492 580 q 492 607 476 624 q 459 642 431 642 q 397 642 384 623 q 371 604 371 539 l 371 47 q 371 24 364 12 q 357 0 336 0 l 71 0 q 55 0 48 12 q 40 24 40 47 l 40 736 q 40 786 82 810 q 124 833 186 833 q 238 833 286 818 q 335 803 348 782 q 369 800 386 808 q 438 834 507 834 q 614 834 699 755 q 793 668 793 538 z"},"|":{"x_min":0,"x_max":220,"ha":220,"o":"m 177 25 q 177 6 166 1 q 155 -4 134 -4 l 81 -4 q 66 -4 52 4 q 38 11 38 25 l 38 786 q 38 800 51 806 q 64 813 81 813 l 134 813 q 154 813 166 808 q 177 804 177 786 z"},"t":{"x_min":0,"x_max":457,"ha":457,"o":"m 445 264 q 450 254 454 235 q 457 216 457 196 q 457 156 441 120 q 421 75 379 42 q 350 20 316 8 q 282 -3 248 -3 q 164 -3 102 54 q 39 110 39 189 l 39 575 q 39 590 58 601 l 210 690 q 217 694 223 690 q 229 685 229 673 l 229 590 l 372 590 q 393 590 397 587 q 403 583 403 567 l 403 477 q 403 459 400 456 q 395 451 372 451 l 252 451 q 236 451 232 446 q 229 442 229 426 q 229 420 229 417 l 229 256 q 229 232 246 218 q 264 203 287 203 q 309 203 323 215 q 337 227 337 252 q 337 275 322 293 q 307 311 285 311 q 268 311 267 310 q 266 308 265 308 q 265 322 286 334 q 306 345 334 345 q 367 345 394 328 q 427 307 445 264 z"},"M":{"x_min":0,"x_max":1125,"ha":1125,"o":"m 563 563 q 563 655 626 727 q 697 808 811 808 q 918 808 991 733 q 1061 661 1061 560 q 1057 537 1056 523 q 1054 509 1055 499 l 1102 28 q 1101 18 1099 14 q 1093 0 1078 0 l 773 0 q 739 0 739 32 l 739 392 q 739 404 751 415 q 777 439 777 455 q 777 477 762 490 q 748 502 728 502 q 709 502 696 490 q 683 478 683 455 l 683 25 q 683 12 678 6 q 673 0 653 0 l 472 0 q 455 0 449 6 q 443 12 443 25 l 443 455 q 443 476 428 488 q 414 501 396 501 q 376 501 362 489 q 348 477 348 455 q 348 438 373 415 q 386 403 386 392 l 386 32 q 386 0 352 0 l 48 0 q 37 0 30 8 q 23 16 23 28 l 70 499 q 71 514 69 530 q 67 546 65 560 q 65 661 136 734 q 206 808 314 808 q 427 808 499 727 q 563 655 563 563 z"},"g":{"x_min":0,"x_max":634,"ha":634,"o":"m 594 -45 q 594 -123 540 -179 q 486 -235 408 -235 l 151 -235 q 132 -235 130 -228 q 127 -221 127 -209 l 127 -103 q 127 -87 128 -85 q 132 -77 151 -77 l 317 -77 q 346 -77 357 -63 q 368 -49 368 -20 l 368 416 q 368 443 349 454 q 330 465 301 465 q 255 465 230 429 q 204 393 204 343 q 204 298 226 264 q 248 231 287 231 q 318 231 326 224 q 335 217 335 193 l 335 28 q 335 3 317 2 q 299 0 247 0 q 141 0 80 87 q 24 166 24 283 q 24 407 85 494 q 154 592 269 592 q 310 592 342 572 q 352 566 366 552 q 386 567 426 578 q 467 590 505 590 q 544 590 569 574 q 594 559 594 525 z"},"j":{"x_min":0,"x_max":378,"ha":378,"o":"m 334 695 q 334 652 304 622 q 274 592 230 592 q 187 592 157 622 q 127 652 127 695 q 127 738 157 768 q 187 798 230 798 q 272 798 303 768 q 334 738 334 695 z m 334 -44 q 334 -112 286 -152 q 237 -193 155 -193 q 75 -193 26 -150 q -22 -106 -22 -44 q -22 8 26 46 q 73 84 82 71 q 87 65 82 58 q 77 50 77 30 q 77 9 90 -4 q 103 -17 123 -17 q 143 -17 157 -4 q 171 9 171 28 q 171 55 149 90 q 127 125 127 153 l 127 630 q 139 610 150 600 q 184 569 230 569 q 277 569 310 599 q 321 609 334 630 z"},"i":{"x_min":0,"x_max":285,"ha":285,"o":"m 247 687 q 247 645 217 615 q 187 585 144 585 q 101 585 71 614 q 41 643 41 687 q 41 730 71 760 q 101 790 144 790 q 187 790 217 760 q 247 730 247 687 z m 247 30 q 247 0 223 0 l 68 0 q 57 0 49 9 q 41 18 41 30 l 41 622 q 54 602 64 592 q 97 561 144 561 q 190 561 223 591 q 234 601 247 622 z"},"y":{"x_min":0,"x_max":634,"ha":634,"o":"m 589 -43 q 589 -114 551 -155 q 508 -201 422 -201 l 142 -201 q 121 -201 119 -195 q 117 -189 117 -175 l 117 -92 q 117 -72 120 -69 q 123 -66 142 -66 l 308 -66 q 339 -66 353 -62 q 377 -55 377 -34 q 377 -12 360 -6 q 342 0 295 0 q 274 0 261 0 q 125 0 71 85 q 39 135 39 205 l 39 581 q 39 592 52 592 l 303 592 q 315 592 315 581 l 315 365 q 286 365 263 351 q 233 333 233 300 q 233 266 252 242 q 272 219 309 219 q 336 219 357 242 q 378 265 378 299 l 378 581 q 378 589 382 591 q 383 591 387 592 l 576 592 q 586 592 588 590 q 589 589 589 581 z"},"@":{"x_min":0,"x_max":854,"ha":854,"o":"m 822 396 q 822 333 744 284 q 667 235 561 235 l 465 235 q 449 235 449 251 l 449 371 q 449 393 422 393 q 412 393 406 388 q 399 382 399 370 q 399 351 416 346 q 434 341 434 308 q 434 266 408 243 q 383 220 347 220 q 310 220 282 244 q 254 268 254 311 q 254 346 264 368 q 273 391 302 412 q 305 414 392 445 q 424 457 440 475 q 450 488 450 498 q 450 508 442 514 q 433 520 422 520 q 399 520 399 499 q 389 479 375 470 q 361 460 347 460 q 324 460 306 478 q 287 495 287 509 q 287 543 328 566 q 369 588 425 588 q 489 588 529 559 q 577 524 577 457 l 577 295 q 648 295 670 333 q 680 351 680 396 q 680 527 605 620 q 530 713 426 713 q 322 713 247 620 q 172 527 172 396 q 172 265 247 172 q 322 79 426 79 q 475 79 521 102 q 567 126 602 168 q 610 163 618 159 q 638 124 638 84 q 638 62 628 56 q 536 0 426 0 q 262 0 146 116 q 30 232 30 396 q 30 560 146 676 q 262 792 426 792 q 590 792 706 676 q 822 560 822 396 z"},".":{"x_min":0,"x_max":169,"ha":169,"o":"m 157 71 q 157 42 136 21 q 115 0 85 0 q 56 0 35 21 q 14 42 14 71 q 14 100 35 121 q 56 142 85 142 q 115 142 136 122 q 157 102 157 71 z"},"p":{"x_min":0,"x_max":626,"ha":626,"o":"m 609 287 q 609 170 554 90 q 492 0 387 0 q 368 0 360 0 q 318 0 308 4 q 298 9 298 28 l 298 193 q 298 217 306 224 q 314 230 346 230 q 385 230 406 266 q 427 302 427 350 q 427 395 399 430 q 371 465 332 465 q 303 465 284 454 q 266 444 266 416 l 266 -181 q 266 -188 265 -191 q 259 -202 240 -202 l 61 -202 q 49 -202 43 -190 q 41 -186 39 -178 l 39 525 q 39 559 64 575 q 88 591 128 591 q 166 591 206 580 q 246 568 267 552 q 281 565 291 571 q 324 591 364 591 q 465 591 537 498 q 609 404 609 287 z"},"X":{"x_min":0,"x_max":870,"ha":870,"o":"m 848 31 q 846 21 843 16 q 832 0 804 0 l 748 0 q 610 0 514 83 q 433 153 433 218 q 433 154 352 84 q 255 0 118 0 l 62 0 q 35 0 24 15 q 21 20 18 31 l 18 246 q 18 285 24 291 q 29 297 65 297 l 165 297 q 273 297 314 365 q 340 408 340 484 q 340 494 340 502 q 339 509 339 514 q 339 550 315 573 q 291 596 264 596 q 242 596 225 576 q 208 557 208 536 q 208 504 229 483 q 236 476 251 468 q 201 434 152 434 q 97 434 60 475 q 23 516 23 581 q 23 702 99 761 q 158 807 245 807 q 323 807 365 779 q 399 756 433 694 q 467 756 501 779 q 542 807 621 807 q 707 807 766 761 q 843 701 843 581 q 843 517 806 476 q 769 434 713 434 q 665 434 615 468 q 629 475 636 482 q 658 504 658 536 q 658 556 641 576 q 624 596 602 596 q 576 596 552 572 q 527 549 527 514 q 526 496 526 483 q 526 406 551 365 q 592 297 700 297 l 801 297 q 836 297 842 290 q 848 284 848 246 z"},"*":{"x_min":0,"x_max":268,"ha":268,"o":"m 238 745 q 241 739 241 734 q 241 715 205 692 q 193 685 168 672 q 192 660 203 653 q 239 629 239 610 q 239 605 236 599 q 230 589 218 589 q 202 589 176 607 q 168 613 153 626 q 154 619 154 610 q 155 602 155 598 q 155 574 149 558 q 143 541 127 541 q 112 541 106 555 q 100 569 100 590 q 100 602 101 610 q 102 619 104 626 q 89 614 81 609 q 54 591 37 591 q 26 591 18 600 q 16 602 15 606 q 14 609 14 611 q 14 630 50 653 q 62 660 86 672 q 62 684 50 691 q 14 714 14 734 q 14 741 20 748 q 25 754 36 754 q 56 754 89 729 q 94 725 104 716 q 102 723 101 733 q 100 743 100 756 q 100 778 106 792 q 112 806 127 806 q 143 806 149 790 q 155 773 155 748 q 155 732 154 722 q 154 720 153 716 q 167 729 175 735 q 201 755 218 755 q 231 755 238 745 z"},"Y":{"x_min":0,"x_max":786,"ha":786,"o":"m 766 618 q 766 487 710 353 q 646 199 532 108 q 397 0 214 0 q 186 0 162 0 q 139 0 119 -1 q 81 -1 74 6 q 67 13 67 44 l 67 258 q 67 281 74 290 q 80 299 112 299 l 328 299 q 361 299 375 303 q 399 310 399 332 q 399 347 384 355 q 368 363 328 363 l 240 364 q 173 364 126 407 q 79 450 65 519 l 16 768 q 14 776 14 780 q 14 806 54 806 l 335 806 q 357 806 365 804 q 373 801 373 770 l 373 566 q 373 536 396 516 q 418 497 446 497 q 473 497 492 514 q 515 535 515 574 q 515 605 495 620 q 475 636 443 636 q 436 635 432 635 q 429 659 429 679 q 429 750 470 788 q 507 822 571 822 q 603 822 638 813 q 688 800 725 749 q 766 693 766 618 z"},"c":{"x_min":0,"x_max":546,"ha":546,"o":"m 527 28 q 527 9 520 4 q 512 0 491 0 l 326 0 q 262 0 216 16 q 145 41 91 107 q 20 193 20 299 q 20 407 96 493 q 137 539 197 566 q 257 592 317 592 q 376 592 422 568 q 469 544 494 494 q 503 477 508 456 q 514 434 514 419 q 514 380 490 356 q 466 332 433 332 q 400 332 376 358 q 365 370 360 384 q 356 399 356 424 q 342 458 310 458 q 274 458 240 420 q 207 383 207 340 q 207 328 210 317 q 225 268 249 244 q 280 213 333 213 l 491 213 q 516 213 522 205 q 527 197 527 171 z"},"!":{"x_min":0,"x_max":367,"ha":367,"o":"m 333 634 l 274 168 q 262 183 253 190 q 225 212 189 212 q 162 212 135 197 q 108 182 108 168 l 24 634 q 22 648 22 654 q 22 710 69 750 q 116 789 178 789 q 270 789 307 758 q 337 733 337 680 q 337 670 336 656 q 334 642 333 634 z m 281 87 q 281 48 254 21 q 227 -6 189 -6 q 150 -6 123 21 q 96 48 96 87 q 96 125 123 152 q 150 179 189 179 q 227 179 254 152 q 281 125 281 87 z"},"/":{"x_min":0,"x_max":622,"ha":622,"o":"m 615 801 l 103 -5 l 0 -5 l 512 801 z"},"[":{"x_min":0,"x_max":320,"ha":320,"o":"m 308 -13 q 269 -37 259 -40 q 249 -42 164 -42 q 98 -42 49 15 q 0 72 0 145 l 0 653 q 0 713 36 768 q 83 840 164 840 q 237 840 254 836 q 272 833 308 811 q 277 783 265 770 q 244 748 244 693 l 244 107 q 244 48 267 27 q 305 -7 308 -13 z"},"6":{"x_min":0,"x_max":752,"ha":752,"o":"m 645 605 q 645 581 621 581 l 480 581 q 393 581 341 525 q 293 474 293 403 q 293 368 304 340 q 316 313 340 292 q 365 270 392 270 q 422 270 442 294 q 462 317 462 350 q 462 374 448 394 q 438 407 417 415 q 411 417 399 420 q 395 420 393 427 q 391 433 391 444 q 391 467 400 482 q 409 497 438 511 q 474 529 512 529 q 545 529 578 515 q 611 501 641 468 q 675 431 696 382 q 716 334 716 283 q 716 224 689 171 q 659 112 598 66 q 554 33 494 15 q 434 -3 371 -3 q 293 -3 225 24 q 157 50 113 104 q 75 151 52 218 q 28 285 28 359 q 28 446 61 524 q 98 611 174 680 q 237 737 310 757 q 368 773 470 773 q 496 773 559 772 q 622 771 625 771 q 638 771 642 764 q 645 757 645 745 z"},"r":{"x_min":0,"x_max":480,"ha":480,"o":"m 490 465 q 490 392 447 355 q 412 325 362 325 q 339 325 322 332 q 306 340 303 351 q 320 356 328 361 q 353 377 353 404 q 353 432 338 446 q 322 461 301 461 q 278 461 260 446 q 242 431 242 406 l 242 31 q 242 16 236 8 q 230 0 210 0 l 66 0 q 51 0 46 8 q 40 16 40 31 l 40 552 q 40 573 62 584 q 85 594 120 594 q 159 594 195 584 q 231 574 244 559 q 289 595 353 595 q 411 595 448 564 q 490 529 490 465 z"},"2":{"x_min":0,"x_max":673,"ha":673,"o":"m 635 229 l 634 23 q 634 12 624 6 q 614 0 601 0 l 39 0 q 24 0 24 22 q 24 36 30 45 l 310 510 q 318 523 318 542 q 318 568 301 587 q 284 606 256 606 q 231 606 216 589 q 202 572 202 554 q 202 546 205 541 q 219 521 219 495 q 219 462 198 438 q 176 413 142 413 q 108 413 71 440 q 48 456 39 478 q 30 501 30 530 q 30 558 35 581 q 44 638 108 699 q 197 784 332 784 q 464 784 536 711 q 581 665 598 598 q 609 557 609 516 q 609 455 576 396 q 571 387 505 290 q 500 282 500 277 q 500 263 522 263 l 610 263 q 621 263 628 252 q 635 241 635 229 z"},"{":{"x_min":0,"x_max":372,"ha":372,"o":"m 347 -13 q 308 -37 298 -40 q 288 -42 203 -42 q 131 -42 82 23 q 39 80 39 145 q 43 165 45 178 q 52 223 52 254 q 52 301 40 330 q 34 345 19 369 q 14 377 5 390 q 13 405 18 414 q 35 445 40 461 q 46 477 48 497 q 50 517 50 541 q 50 579 45 618 q 44 632 39 653 q 39 708 75 765 q 123 840 203 840 q 288 840 298 838 q 308 835 347 811 q 316 783 304 771 q 283 749 283 693 q 288 668 290 652 q 298 597 298 558 q 298 517 296 502 q 293 487 286 468 q 279 448 264 420 q 259 411 250 395 q 258 381 263 373 q 279 345 286 329 q 292 313 295 288 q 298 264 298 239 q 298 195 291 148 q 289 132 283 107 q 283 50 316 22 q 339 3 347 -13 z"},"9":{"x_min":0,"x_max":731,"ha":731,"o":"m 615 648 q 689 556 689 407 q 689 317 658 238 q 623 149 553 85 q 492 29 434 13 q 377 -3 254 -3 q 240 -3 233 -3 q 220 -3 213 -3 q 201 -3 195 -3 q 184 -3 179 -3 q 169 -3 164 -3 q 155 -3 151 -3 q 143 -3 139 -3 q 119 -3 99 -2 q 79 -2 58 -2 q 49 -2 45 -2 q 32 -2 28 5 q 25 12 25 23 l 25 232 q 25 243 32 250 q 39 257 50 257 l 240 257 q 326 257 379 324 q 426 384 426 461 q 426 496 416 522 q 407 549 386 567 q 361 588 332 588 q 311 588 294 579 q 277 570 268 557 q 259 544 259 524 q 259 495 278 474 q 297 453 329 453 q 337 453 337 434 q 337 420 334 406 q 331 392 324 385 q 302 360 273 348 q 244 335 213 335 q 142 335 88 387 q 31 442 31 520 q 31 565 54 612 q 76 659 125 705 q 160 738 210 754 q 260 769 319 769 q 407 769 488 736 q 570 704 615 648 z"}," ":{"x_min":0,"x_max":228,"ha":228,"o":""},"I":{"x_min":0,"x_max":404,"ha":404,"o":"m 360 41 q 360 23 350 12 q 339 0 319 0 l 81 0 q 61 0 53 5 q 40 13 40 38 l 40 650 q 40 721 63 760 q 91 807 149 807 l 311 807 q 341 807 350 798 q 360 790 360 766 z"},"H":{"x_min":0,"x_max":792,"ha":792,"o":"m 747 32 q 747 0 696 0 l 436 0 q 414 0 407 6 q 400 12 400 27 l 400 293 q 400 311 430 330 q 461 348 461 376 q 461 401 445 416 q 429 431 405 431 q 379 431 361 416 q 343 401 343 371 l 343 26 q 343 16 335 8 q 327 0 316 0 l 64 0 q 52 0 44 16 q 42 21 38 32 l 38 753 q 38 788 46 798 q 55 808 78 808 l 301 808 q 320 808 332 792 q 343 775 343 753 l 343 545 l 400 545 l 400 782 q 400 798 410 803 q 419 808 436 808 l 696 808 q 747 808 747 778 z"},"4":{"x_min":0,"x_max":837,"ha":837,"o":"m 788 30 q 788 10 783 5 q 778 0 752 0 l 527 0 q 500 0 494 6 q 489 11 489 33 l 489 192 q 489 211 480 216 q 472 220 442 220 l 57 220 q 33 220 24 226 q 14 233 14 245 q 14 253 19 266 q 20 269 29 288 l 166 606 q 183 644 217 664 q 251 684 289 684 q 339 684 376 656 q 414 628 414 585 q 414 564 406 545 q 373 545 352 520 q 332 494 332 460 q 332 427 352 404 q 373 382 412 382 q 446 382 468 406 q 489 429 489 464 l 489 741 q 489 754 492 762 q 495 770 513 770 l 749 770 q 776 770 782 764 q 788 758 788 735 z"},"~":{"x_min":0,"x_max":726,"ha":726,"o":"m 568 604 q 535 559 512 538 q 468 497 427 497 q 398 497 342 552 q 285 608 270 608 q 241 608 221 596 q 182 572 142 501 l 142 653 q 183 705 198 719 q 241 760 283 760 q 310 760 370 703 q 430 646 441 646 q 463 646 486 662 q 522 688 568 756 z"},"D":{"x_min":0,"x_max":834,"ha":834,"o":"m 799 398 q 799 192 753 102 q 701 0 571 0 l 413 0 q 393 0 388 20 q 382 40 382 75 l 381 221 q 381 269 463 316 q 545 363 545 440 q 545 524 514 569 q 484 614 435 614 q 382 614 366 590 q 345 558 345 444 l 344 0 l 40 0 l 40 706 q 40 755 83 782 q 126 808 186 808 q 232 808 270 793 q 308 778 325 751 q 358 783 392 796 q 427 808 479 808 q 576 808 682 688 q 799 556 799 398 z"},"^":{"x_min":0,"x_max":726,"ha":726,"o":"m 528 521 q 448 521 397 577 q 352 627 352 691 q 352 626 308 577 q 258 521 177 521 l 211 685 q 236 685 247 697 q 258 709 261 731 l 444 731 q 444 709 456 697 q 467 685 494 685 z"},"0":{"x_min":0,"x_max":829,"ha":829,"o":"m 793 398 q 793 209 699 101 q 598 -15 410 -15 q 220 -15 121 100 q 28 208 28 398 q 28 529 128 662 q 245 818 410 818 q 524 818 618 742 q 698 677 748 572 q 793 478 793 398 z m 538 451 q 538 512 507 562 q 470 622 410 622 q 352 622 315 563 q 282 511 282 451 q 282 379 318 330 q 353 280 410 280 q 470 280 504 328 q 538 377 538 451 z"},"F":{"x_min":0,"x_max":662,"ha":662,"o":"m 685 659 q 685 573 641 537 q 607 509 547 509 l 495 509 q 459 509 444 514 q 429 518 429 536 q 429 555 440 568 q 450 580 450 616 q 450 644 432 660 q 413 675 387 675 q 360 675 341 656 q 322 638 322 601 l 322 496 q 322 462 329 455 q 336 448 367 448 l 604 448 l 604 281 l 367 281 q 335 281 329 272 q 323 263 323 225 l 323 0 l 40 0 l 40 760 q 40 786 87 802 q 134 819 194 819 q 252 819 292 805 q 332 791 339 762 q 360 790 391 802 q 431 818 506 818 q 586 818 636 774 q 685 729 685 659 z"},"`":{"x_min":0,"x_max":726,"ha":726,"o":"m 510 842 q 343 857 242 916 q 140 976 140 1048 q 140 1070 153 1096 q 166 1121 198 1134 q 230 1148 269 1148 q 309 1148 338 1134 q 367 1119 367 1094 q 367 1080 358 1066 q 348 1053 348 1036 q 348 998 404 959 q 452 926 510 912 z"},"k":{"x_min":0,"x_max":594,"ha":594,"o":"m 571 76 q 581 44 581 31 q 581 0 538 0 l 332 0 q 321 0 314 7 q 307 14 307 25 l 307 307 q 289 316 275 324 q 261 331 258 331 q 254 331 254 317 q 254 302 254 292 l 254 25 q 254 8 251 5 q 246 0 220 0 l 74 0 q 54 0 50 3 q 44 7 44 25 l 44 777 q 44 800 49 804 q 53 807 74 807 l 217 807 q 242 807 248 802 q 254 797 254 772 l 254 496 q 254 469 268 456 q 282 442 303 442 q 322 442 337 455 q 352 468 352 491 q 352 512 336 528 q 331 533 310 547 q 290 558 290 567 q 290 577 314 586 q 339 594 358 597 q 377 600 399 600 q 474 600 520 552 q 562 508 562 444 q 562 404 544 370 q 527 337 490 314 z"},"u":{"x_min":0,"x_max":598,"ha":598,"o":"m 559 39 q 559 19 538 8 q 516 -4 484 -4 q 451 -4 416 8 q 382 19 360 39 q 324 18 286 7 q 248 -4 215 -4 q 138 -4 89 48 q 40 100 40 194 l 40 559 q 40 581 42 584 q 46 590 63 590 l 265 590 q 280 590 283 586 q 287 581 287 559 l 287 304 q 250 297 234 287 q 200 266 200 217 q 200 181 224 159 q 248 137 280 137 q 313 137 336 160 q 360 182 360 226 l 360 559 q 360 581 363 585 q 367 590 389 590 l 533 590 q 552 590 556 585 q 559 581 559 559 z"},"]":{"x_min":0,"x_max":352,"ha":352,"o":"m 317 147 q 317 73 268 16 q 220 -40 153 -40 q 137 -40 130 -40 q 85 -40 63 -36 q 41 -31 9 -11 q 17 5 39 20 q 73 44 73 109 l 73 695 q 73 750 52 772 q 30 792 9 813 q 34 831 64 836 q 94 842 153 842 q 225 842 275 771 q 317 712 317 655 z"},"U":{"x_min":0,"x_max":780,"ha":780,"o":"m 735 266 q 735 149 627 70 q 528 -2 404 -2 q 244 -2 148 56 q 40 121 40 244 l 40 766 q 40 786 50 796 q 60 806 88 806 l 293 806 q 325 806 336 795 q 348 784 348 761 l 348 378 q 348 342 372 321 q 393 303 417 303 q 441 303 462 320 q 487 341 487 373 q 487 413 446 446 q 406 480 406 509 l 406 769 q 406 793 412 800 q 419 806 436 806 l 699 806 q 719 806 727 799 q 735 792 735 777 z"},"o":{"x_min":0,"x_max":641,"ha":641,"o":"m 621 276 q 621 140 533 63 q 452 -8 321 -8 q 190 -8 108 63 q 20 139 20 276 q 20 398 114 495 q 209 592 321 592 q 425 592 521 496 q 621 396 621 276 z m 445 312 q 445 355 409 400 q 368 451 321 451 q 273 451 233 401 q 197 356 197 312 q 197 263 235 233 q 273 203 321 203 q 369 203 405 231 q 445 263 445 312 z"},"N":{"x_min":0,"x_max":764,"ha":764,"o":"m 726 29 q 723 15 718 10 q 708 0 692 0 l 400 0 q 386 0 378 11 q 370 22 370 37 l 370 490 q 370 508 410 532 q 451 556 451 599 q 451 627 434 644 q 418 660 396 660 q 373 660 356 644 q 340 628 340 599 l 340 37 q 340 18 334 11 q 325 0 299 0 l 77 0 q 40 0 40 32 l 40 776 q 40 806 82 817 q 108 824 154 824 q 170 824 174 824 q 223 824 267 804 q 300 789 327 765 q 358 787 387 801 q 434 824 470 824 q 634 824 690 731 q 726 671 726 532 z"},"+":{"x_min":0,"x_max":492,"ha":492,"o":"m 454 353 q 454 333 451 325 q 445 310 427 310 l 317 310 l 317 201 q 317 182 306 177 q 295 172 274 172 l 221 172 q 206 172 192 180 q 178 187 178 201 l 178 310 l 70 310 q 51 310 46 321 q 41 332 41 353 l 41 406 q 41 421 48 435 q 56 449 70 449 l 178 449 l 178 558 q 178 572 191 578 q 204 585 221 585 l 274 585 q 294 585 306 580 q 317 576 317 558 l 317 449 l 427 449 q 441 449 448 436 q 454 423 454 406 z"},"G":{"x_min":0,"x_max":816,"ha":816,"o":"m 789 59 q 789 35 770 18 q 752 0 727 0 q 631 0 605 2 q 536 7 513 46 q 485 26 446 14 q 407 1 358 1 q 305 1 250 20 q 194 39 141 82 q 94 120 62 202 q 31 283 31 378 q 31 461 58 538 q 84 616 142 678 q 200 740 278 774 q 356 808 441 808 q 520 808 591 776 q 662 744 715 678 q 737 650 748 623 q 758 596 758 573 q 758 520 715 484 q 677 452 633 452 q 608 452 580 466 q 553 480 536 501 q 543 515 543 539 q 543 577 524 602 q 499 635 446 635 q 388 635 346 584 q 305 532 305 468 q 305 402 346 351 q 391 295 456 295 q 477 295 483 306 q 489 318 489 346 q 489 384 507 397 q 520 406 552 406 l 759 406 q 778 406 784 398 q 789 391 789 367 z"},"q":{"x_min":0,"x_max":629,"ha":629,"o":"m 590 -184 q 590 -194 584 -202 q 577 -209 568 -209 l 389 -209 q 379 -209 372 -202 q 364 -196 364 -187 l 364 410 q 364 432 346 446 q 329 459 303 459 q 263 459 235 432 q 202 401 202 344 q 202 297 224 260 q 245 224 283 224 q 315 224 323 218 q 331 212 331 186 l 331 22 q 331 -3 313 -4 q 295 -6 243 -6 q 138 -6 76 84 q 20 165 20 280 q 20 399 92 492 q 163 585 265 585 q 306 585 338 566 q 348 560 362 546 q 384 562 423 574 q 462 585 502 585 q 542 585 566 570 q 590 554 590 519 z"},"d":{"x_min":0,"x_max":615,"ha":615,"o":"m 581 67 q 581 31 553 11 q 525 -9 482 -9 q 416 -9 359 30 q 349 24 341 20 q 292 -4 239 -4 q 134 -4 75 86 q 23 165 23 283 q 23 399 94 492 q 165 584 262 584 q 312 584 320 580 q 329 577 329 556 l 329 483 q 329 469 322 465 q 316 461 292 461 q 255 461 226 424 q 198 388 198 346 q 198 284 219 254 q 240 225 272 225 q 306 225 332 254 q 359 284 359 329 l 359 764 q 359 795 366 800 q 373 806 394 806 l 547 806 q 564 806 572 798 q 581 789 581 761 z"},"1":{"x_min":0,"x_max":396,"ha":396,"o":"m 342 52 q 342 29 322 14 q 301 0 274 0 l 97 0 q 74 0 58 14 q 41 29 41 52 l 41 598 q 41 632 66 656 q 92 679 126 679 q 126 723 148 747 q 170 771 206 771 l 304 771 q 323 771 332 752 q 342 733 342 709 z"},"5":{"x_min":0,"x_max":746,"ha":746,"o":"m 640 627 q 640 608 634 602 q 627 595 605 595 l 374 595 q 360 595 360 571 q 360 559 365 559 q 383 562 402 562 q 450 562 504 544 q 557 525 607 489 q 711 414 711 297 q 711 245 688 194 q 664 144 615 100 q 559 49 488 22 q 416 -4 344 -4 q 211 -4 125 71 q 80 110 54 155 q 29 200 29 244 q 29 275 42 303 q 56 331 85 355 q 100 368 118 374 q 137 379 161 379 q 195 379 223 370 q 251 362 259 352 q 267 313 287 294 q 307 275 332 275 q 365 275 392 300 q 420 326 420 359 q 420 383 402 404 q 391 417 376 426 q 356 438 338 438 l 128 438 q 113 438 106 441 q 98 444 98 467 l 122 740 q 122 764 133 768 q 144 773 169 773 l 605 773 q 628 773 634 768 q 640 763 640 743 z"}}}
